<mxfile host="app.diagrams.net" modified="2024-05-07T16:42:27.725Z" agent="Mozilla/5.0 (X11; Linux x86_64; rv:125.0) Gecko/20100101 Firefox/125.0" version="24.3.1" etag="DfFQrkq4Td-KqHWQs9RW" type="github">
  <diagram name="Page-1" id="HEtIJz3JQy9qje9a7T7m">
    <mxGraphModel>
      <root>
        <mxCell id="0" />
        <mxCell id="1" parent="0" />
      </root>
    </mxGraphModel>
  </diagram>
</mxfile>
